<svg width="312" height="369" viewBox="0 0 312 369" fill="none" xmlns="http://www.w3.org/2000/svg">
<path d="M193.669 220.56H206.169V213.123L199.632 209.574L193.669 220.56ZM181.169 313.075C181.169 319.978 186.765 325.575 193.669 325.575C200.572 325.575 206.169 319.978 206.169 313.075H193.669H181.169ZM152.39 130.872C146.302 127.618 138.728 129.916 135.474 136.004C132.22 142.093 134.518 149.667 140.607 152.921L146.499 141.896L152.39 130.872ZM241 192.399H253.5V184.907L246.891 181.375L241 192.399ZM107.679 159.656C101.611 156.363 94.0228 158.611 90.7292 164.678C87.4355 170.745 89.684 178.334 95.7512 181.628L101.715 170.642L107.679 159.656ZM228.5 223.399C228.5 230.303 234.096 235.899 241 235.899C247.903 235.899 253.5 230.303 253.5 223.399H241H228.5ZM193.347 220.227L199.017 231.367L295.793 182.115L290.124 170.975L284.454 159.834L187.678 209.087L193.347 220.227ZM193.669 220.56H181.169V313.075H193.669H206.169V220.56H193.669ZM146.499 141.896L140.607 152.921L235.108 203.424L241 192.399L246.891 181.375L152.39 130.872L146.499 141.896ZM241 192.399H228.5V223.399H241H253.5V192.399H241ZM193.669 220.56L199.632 209.574L107.679 159.656L101.715 170.642L95.7512 181.628L187.705 231.546L193.669 220.56Z" fill="white"/>
<path d="M98.4998 262.6V170.228C98.4998 168.427 99.4682 166.765 101.035 165.878L187.786 116.728C189.25 115.899 191.034 115.862 192.531 116.629L288.69 165.92C290.36 166.776 291.41 168.494 291.41 170.37V262.457C291.41 264.319 290.375 266.027 288.725 266.889L192.568 317.127C191.051 317.919 189.234 317.881 187.752 317.025L100.999 266.93C99.4526 266.036 98.4998 264.386 98.4998 262.6Z" stroke="white" stroke-width="25"/>
<path d="M152.197 355.899C152.197 355.899 4.84147 318.899 12.8118 67.3993C12.873 65.4673 138.816 15.935 151.865 12.5781C152.5 12.4148 153.123 12.5281 153.729 12.7784L296.107 71.6222C297.978 72.3951 299.197 74.2193 299.197 76.2431V125.399" stroke="white" stroke-width="25" stroke-linecap="round"/>
</svg>
